<?xml version="1.0" encoding="utf-8"?>
<!-- Generator: Adobe Illustrator 17.0.0, SVG Export Plug-In . SVG Version: 6.00 Build 0)  -->
<!DOCTYPE svg PUBLIC "-//W3C//DTD SVG 1.1//EN" "http://www.w3.org/Graphics/SVG/1.1/DTD/svg11.dtd">
<svg version="1.1" id="Layer_1" xmlns="http://www.w3.org/2000/svg" xmlns:xlink="http://www.w3.org/1999/xlink" x="0px" y="0px"
	 width="150px" height="47.387px" viewBox="0 0 150 47.387" enable-background="new 0 0 150 47.387" xml:space="preserve">
<rect y="0.244" display="none" fill="#00AEEF" width="150" height="47"/>
<g>
	<path fill="#EE3624" d="M0.594,10.151c4.145,0,8.353-0.062,12.498,0.062c3.217,0.062,5.754,2.289,6.249,5.197
		c0.557,3.403-1.114,6.249-3.836,7.053c-0.062,0-0.124,0.062-0.186,0.124c2.599,0.742,4.083,2.413,4.578,5.012
		c0.742,4.207-1.609,7.672-6.001,8.167c-0.99,0.124-1.98,0.124-2.908,0.124c-3.465,0-6.929,0-10.332,0
		C0.594,27.289,0.594,18.751,0.594,10.151z M6.162,31.002c0.062,0,0.124,0.062,0.186,0.062c1.732,0,3.465,0.062,5.197,0
		c1.732-0.062,2.846-1.176,2.846-2.784c0.062-1.609-0.928-2.784-2.66-2.97c-1.114-0.124-2.227-0.062-3.341-0.062
		c-0.742,0-1.485,0-2.289,0C6.162,27.104,6.162,28.96,6.162,31.002z M6.162,20.36c1.609,0,3.155,0,4.702,0
		c0.309,0,0.557,0,0.928-0.062c1.114-0.186,1.918-0.804,2.165-1.918c0.433-1.794-0.742-3.341-2.537-3.465
		c-0.866-0.062-1.732,0-2.599,0s-1.671,0-2.537,0c0,0.186-0.062,0.309-0.062,0.371C6.162,17.019,6.162,18.628,6.162,20.36z"/>
	<path fill="#EE3624" d="M100.144,36.322c-0.681-0.124-1.299-0.186-1.98-0.371c-5.012-1.237-7.61-5.568-7.177-10.332
		c0.371-4.022,2.413-6.991,6.249-8.353c5.383-1.918,11.632,0.681,12.56,7.796c0.124,0.99,0.124,1.918,0.186,2.908
		c-2.413,0-4.702,0-6.991,0s-4.578,0-6.929,0c0.309,1.732,1.237,2.97,2.722,3.65c2.537,1.052,4.888,0.495,7.115-0.928
		c0.124-0.062,0.247-0.186,0.371-0.247c0,0,0.062,0,0.124,0c0.681,0.99,1.361,2.042,2.165,3.217
		c-0.742,0.433-1.361,0.928-2.104,1.299c-1.299,0.681-2.722,1.052-4.207,1.176c-0.186,0-0.309,0.062-0.495,0.124
		C101.195,36.322,100.638,36.322,100.144,36.322z M105.155,24.753c0.062-2.289-2.104-4.083-4.888-3.96
		c-2.351,0.062-4.393,2.104-4.083,3.96C99.154,24.753,102.123,24.753,105.155,24.753z"/>
	<path fill="#EE3624" d="M120.066,36.322c-0.804-0.124-1.609-0.247-2.413-0.495c-3.774-1.052-6.311-4.207-6.744-8.105
		c-0.309-3.65,0.742-6.806,3.712-9.033c4.455-3.527,13.24-2.722,14.973,5.63c0.124,0.557,0.186,1.176,0.247,1.794
		c0.062,0.681,0,1.299,0,2.042c-2.351,0-4.64,0-6.929,0s-4.578,0-6.929,0c0.124,1.052,0.495,1.918,1.176,2.537
		c1.485,1.547,3.465,1.918,5.445,1.485c1.299-0.247,2.537-0.742,3.588-1.671c0.742,1.114,1.423,2.165,2.227,3.279
		c-0.557,0.371-1.114,0.804-1.671,1.114c-1.423,0.804-2.97,1.176-4.64,1.361c-0.186,0-0.371,0.062-0.557,0.124
		C121.179,36.322,120.623,36.322,120.066,36.322z M116.106,24.753c2.97,0,6.063,0,9.033,0c0.124-2.227-2.042-4.022-4.764-3.96
		C117.962,20.855,115.859,22.711,116.106,24.753z"/>
	<path fill="#EE3624" d="M28.621,36.322c-0.557-0.124-1.176-0.186-1.732-0.371c-3.65-0.866-5.816-3.588-5.816-7.301
		c0-3.588,0-7.177,0-10.765c0-0.186,0-0.371,0-0.681c1.609,0,3.217,0,4.888,0c0,0.186,0,0.433,0,0.681c0,3.403,0,6.806,0,10.147
		c0,1.547,0.433,2.846,1.918,3.527c1.547,0.742,3.217,0.742,4.64-0.309c1.052-0.804,1.361-1.98,1.361-3.217
		c0-3.403,0-6.744,0-10.085c0-0.247,0-0.433,0-0.742c1.609,0,3.217,0,4.888,0c0,0.186,0,0.433,0,0.681c0,3.527,0,7.115,0,10.642
		c0,4.331-2.66,7.239-6.929,7.672c-0.186,0-0.371,0.062-0.681,0.124C30.354,36.322,29.487,36.322,28.621,36.322z"/>
	<path fill="#EE3624" d="M74.962,35.828c0-8.6,0-17.076,0-25.676c5.94,0,11.879,0,17.881,0c0,0.866,0,1.671,0,2.475
		c0,0.495-0.062,1.114,0,1.609c0.062,0.495-0.186,0.681-0.681,0.681c-3.527,0-7.053,0-10.58,0c-0.309,0-0.742,0-1.114,0
		c0,1.732,0,3.527,0,5.383c0.186,0,0.433,0,0.681,0c2.66,0,5.321,0,7.981,0c0.495,0,0.681,0.186,0.681,0.681
		c-0.062,1.361,0,2.722,0,4.083c-3.155,0-6.187,0-9.342,0c0,3.588,0,7.115,0,10.704C78.613,35.828,76.818,35.828,74.962,35.828z"/>
	<path fill="#EE3624" d="M131.079,35.828c0-0.247,0-0.433,0-0.681c0-5.754,0-11.446,0-17.262c0-0.804,0-0.804,0.804-0.804
		c2.66,0,5.383-0.062,8.105,0.124c3.836,0.309,6.806,2.042,8.229,5.816c1.423,3.836,0.309,8.229-2.599,10.642
		c-1.671,1.423-3.774,2.104-5.94,2.227c-2.784,0.124-5.568,0-8.353,0.062C131.264,35.889,131.264,35.889,131.079,35.828z
		 M135.781,31.93c0.928,0,1.794,0,2.66,0c3.217,0,5.135-1.732,5.568-4.95c0.247-2.289-0.99-4.517-2.908-5.321
		c-1.671-0.742-3.527-0.309-5.259-0.433C135.781,24.815,135.781,28.279,135.781,31.93z"/>
	<path fill="#EE3624" d="M48.667,21.474c-2.846,0-5.568,0-8.353,0c0-1.423,0-2.784,0-4.207c5.012,0,9.961,0,15.035,0
		c0,0.804-0.062,1.547,0,2.413c0.062,0.742-0.186,1.299-0.681,1.918c-2.475,3.155-4.95,6.249-7.424,9.404
		c-0.124,0.186-0.247,0.309-0.433,0.557c2.908,0,5.754,0,8.6,0c0,1.485,0,2.846,0,4.331c-5.012,0-10.023,0-15.158,0
		c0-1.176,0-2.351,0-3.527c0-0.186,0.186-0.371,0.309-0.557c2.537-3.279,5.073-6.435,7.61-9.714
		C48.42,21.907,48.482,21.783,48.667,21.474z"/>
	<path fill="#EE3624" d="M56.834,21.474c0-1.299,0-2.537,0-3.774c0-0.124,0-0.247,0.062-0.433c4.95,0,9.961,0,14.973,0
		c0,1.114,0,2.227,0,3.403c0,0.186-0.186,0.309-0.247,0.495c-2.599,3.279-5.135,6.496-7.734,9.837
		c-0.124,0.124-0.247,0.309-0.433,0.557c0.309,0,0.495,0,0.804,0c2.413,0,4.888,0,7.301,0c0.433,0,0.681,0.124,0.557,0.557
		c-0.062,1.237,0,2.413,0,3.712c-5.073,0-10.085,0-15.158,0c0-1.237,0-2.413,0-3.588c0-0.124,0.124-0.309,0.247-0.433
		c2.475-3.155,4.95-6.311,7.424-9.466c0.186-0.247,0.371-0.433,0.681-0.866C62.403,21.474,59.618,21.474,56.834,21.474z"/>
</g>
</svg>
