<?xml version="1.0" encoding="utf-8"?>
<!-- Generator: Adobe Illustrator 22.0.1, SVG Export Plug-In . SVG Version: 6.00 Build 0)  -->
<svg version="1.1" id="Layer_1" xmlns="http://www.w3.org/2000/svg" xmlns:xlink="http://www.w3.org/1999/xlink" x="0px" y="0px"
	 viewBox="0 0 720.2 315.1" style="enable-background:new 0 0 720.2 315.1;" xml:space="preserve">
<style type="text/css">
	.st0{fill:none;stroke:#FFFFFF;stroke-width:1.5;stroke-linejoin:round;stroke-miterlimit:10;}
	.st1{fill:none;stroke:#FFFFFF;stroke-width:1.5;stroke-miterlimit:10;}
	.st2{fill:none;stroke:#FFFFFF;stroke-miterlimit:10;}
	.st3{fill:#FFFFFF;stroke:#FFFFFF;stroke-width:1.5;stroke-linejoin:round;stroke-miterlimit:10;}
</style>
<path class="st0" d="M286.8,172.5c0-36.2,32.2-65.5,72-65.5s72,29.3,72,65.5"/>
<path class="st0" d="M343,156.7c-2.4,0-4.3,1.9-4.3,4.3v16.3h8.7V161C347.3,158.6,345.4,156.7,343,156.7z"/>
<path class="st0" d="M358.8,156.7c-2.4,0-4.3,1.9-4.3,4.3v16.3h8.7V161C363.1,158.6,361.2,156.7,358.8,156.7z"/>
<path class="st0" d="M374.6,156.7c-2.4,0-4.3,1.9-4.3,4.3v16.3h8.7V161C379,158.6,377,156.7,374.6,156.7z"/>
<polyline class="st0" points="462.4,286.4 450.8,172.5 410.6,172.5 410.6,183.4 310.6,183.4 310.6,172.5 270.4,172.5 258.8,286.4 
	"/>
<rect x="275.9" y="207" class="st0" width="14.9" height="9.4"/>
<rect x="290.7" y="244.3" class="st0" width="14.9" height="9.4"/>
<rect x="318.9" y="214.1" class="st0" width="14.9" height="9.4"/>
<rect x="392.7" y="207" class="st0" width="14.9" height="9.4"/>
<rect x="407.5" y="258" class="st0" width="14.9" height="9.4"/>
<rect x="430.5" y="216.4" class="st0" width="14.9" height="9.4"/>
<path class="st0" d="M359.1,218.5c0,0-24.4,29.3-24.4,67.7h48.8C383.4,247.7,359.1,218.5,359.1,218.5z"/>
<g>
	<path class="st0" d="M343.2,262.7c0,0-8.6,10.3-8.6,23.8h17.1C351.8,273,343.2,262.7,343.2,262.7z"/>
</g>
<g>
	<path class="st0" d="M359.1,262.7c0,0-8.6,10.3-8.6,23.8h17.1C367.6,273,359.1,262.7,359.1,262.7z"/>
</g>
<g>
	<path class="st0" d="M374.9,262.7c0,0-8.6,10.3-8.6,23.8h17.1C383.4,273,374.9,262.7,374.9,262.7z"/>
</g>
<rect x="248.8" y="287.2" class="st0" width="223.7" height="9"/>
<rect x="234.8" y="296.2" class="st0" width="251.7" height="9"/>
<line class="st1" x1="135" y1="314.2" x2="0" y2="314.2"/>
<g>
	<circle class="st2" cx="97" cy="276.3" r="16"/>
	<line class="st1" x1="97" y1="314.2" x2="97" y2="292.5"/>
	<circle class="st1" cx="97" cy="276.3" r="16"/>
</g>
<line class="st1" x1="599.5" y1="314.2" x2="720.2" y2="314.2"/>
<g>
	<circle class="st2" cx="626" cy="276.5" r="16"/>
	<line class="st1" x1="626" y1="314.2" x2="626" y2="292.5"/>
	<circle class="st1" cx="626" cy="276.3" r="16"/>
</g>
<polyline class="st0" points="134.6,314.2 201.7,314.2 201.7,305.2 519.5,305.2 519.5,314.2 600.7,314.2 "/>
<path class="st3" d="M367.6,286.2"/>
<line class="st0" x1="201.7" y1="314.2" x2="519.3" y2="314.2"/>
<g id="Layer_4">
</g>
<g id="Layer_3">
</g>
</svg>
