<?xml version="1.0" encoding="utf-8"?>
<!-- Generator: Adobe Illustrator 17.0.0, SVG Export Plug-In . SVG Version: 6.00 Build 0)  -->
<!DOCTYPE svg PUBLIC "-//W3C//DTD SVG 1.1//EN" "http://www.w3.org/Graphics/SVG/1.1/DTD/svg11.dtd">
<svg version="1.1" id="Layer_1" xmlns="http://www.w3.org/2000/svg" xmlns:xlink="http://www.w3.org/1999/xlink" x="0px" y="0px"
	 width="150px" height="47.387px" viewBox="0 0 150 47.387" enable-background="new 0 0 150 47.387" xml:space="preserve">
<g>
	<polygon fill="#00AEEF" points="15.72,24.958 10.534,11.33 1.674,11.33 1.674,36.03 8.052,36.03 8.052,19.699 14.307,36.03 
		17.121,36.03 23.351,19.699 23.351,36.03 29.717,36.03 29.717,11.33 20.869,11.33 	"/>
	<path fill="#00AEEF" d="M39.904,17.696c-2.74,0-5.812,0.811-8.11,2.777l2.114,3.957c1.438-1.217,3.22-1.929,5.001-1.929
		c2.298,0,3.637,1.069,3.637,2.63v1.782c-1.069-1.327-3.183-2.114-5.554-2.114c-2.74,0-6.144,1.45-6.144,5.776
		c0,4.006,3.404,5.886,6.144,5.886c2.298,0,4.448-0.897,5.554-2.224v1.782h5.702V24.835C48.236,19.293,44.193,17.696,39.904,17.696z
		 M42.534,31.434c-0.59,0.86-1.929,1.303-3.183,1.303c-1.475,0-2.851-0.664-2.851-2.077c0-1.413,1.376-2.077,2.851-2.077
		c1.266,0,2.593,0.406,3.183,1.266V31.434z"/>
	<path fill="#00AEEF" d="M54.785,23.361c0-0.7,0.885-1.217,2.224-1.217c2.151,0,4.19,0.922,5.26,1.966l2.187-4.043
		c-1.929-1.413-4.448-2.372-7.484-2.372c-4.928,0-7.668,2.74-7.668,5.886c0,7.263,10.408,4.965,10.408,7.189
		c0,0.774-0.7,1.266-2.409,1.266c-2.114,0-4.965-1.217-6.292-2.409l-2.372,4.068c1.892,1.708,5.186,2.777,8.405,2.777
		c5.112,0,8.11-2.445,8.11-5.849C65.157,23.287,54.785,25.327,54.785,23.361z"/>
	<path fill="#00AEEF" d="M77.79,17.696c-2.998,0-5.112,1.364-6.181,2.63V11.33h-5.702v24.712h5.702V24.491
		c0.664-0.811,1.782-1.745,3.441-1.745c1.819,0,2.962,0.7,2.962,2.888v10.408h5.702V23.287
		C83.713,19.994,81.857,17.696,77.79,17.696z"/>
	<path fill="#00AEEF" d="M93.605,17.696c-2.74,0-5.812,0.811-8.11,2.777l2.114,3.957c1.438-1.217,3.22-1.929,5.001-1.929
		c2.298,0,3.637,1.069,3.637,2.63v1.782c-1.069-1.327-3.183-2.114-5.554-2.114c-2.74,0-6.144,1.45-6.144,5.776
		c0,4.006,3.404,5.886,6.144,5.886c2.298,0,4.448-0.897,5.554-2.224v1.782h5.702V24.835C101.937,19.293,97.906,17.696,93.605,17.696
		z M96.235,31.434c-0.59,0.86-1.929,1.303-3.183,1.303c-1.475,0-2.851-0.664-2.851-2.077c0-1.413,1.376-2.077,2.851-2.077
		c1.266,0,2.593,0.406,3.183,1.266V31.434z"/>
	<path fill="#00AEEF" d="M114.901,17.696c-1.966,0-3.895,0.774-5.296,2.556V11.33h-5.702v24.712h5.702v-2.077
		c1.487,1.708,3.293,2.519,5.296,2.519c4.412,0,7.889-3.33,7.889-9.413C122.79,21.21,119.386,17.696,114.901,17.696z
		 M113.009,31.434c-1.217,0-2.703-0.627-3.404-1.585v-5.481c0.7-0.959,2.187-1.634,3.404-1.634c2.261,0,3.957,1.671,3.957,4.338
		C116.978,29.775,115.27,31.434,113.009,31.434z"/>
	<rect x="123.454" y="11.33" fill="#00AEEF" width="5.702" height="24.712"/>
	<path fill="#00AEEF" d="M148.609,27.662c0-6.071-3.846-9.966-9.155-9.966c-5.591,0-9.487,4.19-9.487,9.376
		c0,5.812,4.227,9.413,9.745,9.413c2.74,0,5.702-0.774,7.484-2.372l-2.482-3.736c-1.032,0.959-3.109,1.524-4.375,1.524
		c-2.593,0-4.068-1.339-4.473-2.925h12.743C148.609,28.977,148.609,27.662,148.609,27.662z M135.792,25.069
		c0.221-1.303,1.18-2.777,3.662-2.777c2.63,0,3.551,1.511,3.699,2.777H135.792z"/>
</g>
<rect y="0.244" display="none" fill="#00AEEF" width="150" height="47"/>
</svg>
