<?xml version="1.0" encoding="utf-8"?>
<!-- Generator: Adobe Illustrator 17.0.0, SVG Export Plug-In . SVG Version: 6.00 Build 0)  -->
<!DOCTYPE svg PUBLIC "-//W3C//DTD SVG 1.1//EN" "http://www.w3.org/Graphics/SVG/1.1/DTD/svg11.dtd">
<svg version="1.1" id="Layer_1" xmlns="http://www.w3.org/2000/svg" xmlns:xlink="http://www.w3.org/1999/xlink" x="0px" y="0px"
	 width="150px" height="47.387px" viewBox="0 0 150 47.387" enable-background="new 0 0 150 47.387" xml:space="preserve">
<rect x="0.296" y="0.122" display="none" fill="#00AEEF" width="150" height="47"/>
<g>
	<path id="path2217" fill="#7B0099" d="M42.087,16.849c-0.715,0.071-3.693,0.738-4.693,0.952
		c-1.072,0.285-10.862,7.849-11.505,9.706c-0.143,0.643-0.214,1.632-0.214,2.561l-0.072,1.501c0,1.071,0.298,2.798,0.44,3.727
		c0.644,0.143,5.302,0.018,6.159,0.161l-0.105,1.921c-0.838-0.061-6.753-0.047-10.132-0.047c-1.715,0-7.23,0.189-8.924,0.138
		l0.32-1.827c0.929-0.072,4.776,0.166,5.621-0.727c0.42-0.443,0.286-0.918,0.286-3.49v-1.214c0-0.572,0-1.644-0.143-2.645
		c-0.357-1.072-8.98-11.839-11.195-13.553c-0.644-0.214-4.674-0.617-5.674-0.832l-0.05-1.646c0.499-0.25,4.981,0.061,9.33-0.1
		c2.859-0.106,9.381,0,10.185,0.096l-0.206,1.45c-0.857,0.215-4.987,0.294-6.059,0.58c2.787,4.145,7.194,9.48,8.623,11.553
		c0.786-1.143,7.695-5.896,7.909-7.539c-1.072-0.215-4.621-0.726-5.193-0.726l-0.339-1.871c0.973-0.152,6.089,0,8.632,0
		c2.195,0,6.885,0,8.218,0.109L42.087,16.849"/>
	<path id="path2219" fill="#7B0099" d="M45.073,22.251l-0.045-0.284c-0.811,1.892-2.187,4.865-2.457,5.585l4.436-0.002
		C46.466,26.154,45.479,23.422,45.073,22.251 M56.853,36.578c-0.315-0.046-3.895-0.045-5.201-0.045
		c-0.766,0-4.666-0.023-5.342-0.023l0.203-1.673c0.902-0.045,2.577-0.41,3.343-0.5c-0.495-1.125-2.13-4.7-2.49-5.375
		c-0.946,0-4.348,0.107-5.294,0.287c-0.18,0.315-1.471,1.582-1.696,3.293c0.631,0.135,1.84,0.395,2.561,0.485l-0.266,1.71
		c-0.765-0.045-3.819,0.045-4.54,0c-0.676,0-3.814,0.007-4.4,0.097l0.558-1.808c0.72-0.09,2.381-0.606,3.011-0.74
		c0.946-1.351,5.327-9.913,5.687-10.725c-0.586-0.135-1.581-0.606-2.212-0.696l-0.087-1.237c0.766,0.046,4.572,0.16,4.976,0.14
		c0.906-0.044,4.267-0.028,5.033-0.072l-0.284,1.215c-0.675,0.044-1.774,0.374-2.405,0.509c0.315,0.946,1.57,3.995,2.516,6.247
		c0.721,1.622,1.917,4.8,3.043,6.647c0.765,0.135,2.522,0.651,3.333,0.695l0.046,0.451L56.853,36.578z"/>
	<path id="path2221" fill="#7B0099" d="M83.236,31.943c-0.621-0.048-3.61-0.044-5.138,0c-1.226,0.035-4.138-0.111-5.524-0.051
		l-0.106-1.698c0.478-0.048,3.46-0.251,4.032-0.347c0.191-0.907,0.1-2.195,0.1-3.293l-0.074-2c-1.529,0-11.636,0.526-12.066,0.573
		l-0.738,0.096c0,2.724,0.143,3.585,0.335,4.589c0.813,0.142,3.728,0.334,4.349,0.43l-0.038,1.851c-0.717-0.048-5.2,0-6.587,0
		c-1.672,0-5.739-0.036-6.695,0.012l0.13-1.911c0.765-0.048,3.655-0.333,4.277-0.428c0.096-1.244,0.143-3.202,0.143-5.257v-2.533
		c0-0.86-0.048-3.345-0.096-4.206c-0.621-0.094-3.512-0.288-4.372-0.336l-0.153-1.447c0.573,0.049,4.564-0.061,6.666-0.061
		c1.96,0,6.402,0.039,6.928-0.01l-0.156,1.517c-0.908,0.048-3.919,0.287-4.444,0.382c-0.144,0.718-0.287,1.339-0.287,3.632
		l-0.07,1.196c0.86,0,11.521-0.042,12.849-0.231v-1.647c0-2.102,0.326-4.376,0.088-4.998c-0.526-0.143-3.374-0.544-4.283-0.592
		l0.127-1.526c0.574,0.048,3.259,0.032,5.265,0.08c2.103,0,5.158,0.086,5.779-0.009l-0.141,1.256
		c-0.621,0.048-3.392,0.749-3.392,0.749s-0.189,1.309-0.05,3.193c0.115,1.564,0.15,4.64,0.15,4.64
		c0.079,3.425,0.291,6.193,0.1,6.337c-0.23,0.171,2.194,0.319,2.862,0.415l0.262,0.454L83.236,31.943"/>
	<path id="path2223" fill="#7B0099" d="M104.043,24.358c0.173-4.83-3.607-6.116-8.383-5.788c-2.499,0.172-7.584,1.493-7.584,5.788
		c0,4.245,3.901,6.544,9.105,6.09c4.028-0.35,6.142-1.834,6.661-3.895L104.043,24.358 M107.885,23.959
		c0.227,5.837-5.103,8.732-12.025,8.732c-2.881,0-6.387-0.549-9.381-2.345c-2.335-1.402-2.722-3.219-2.722-5.493
		c0-4.7,5.117-8.596,12.95-8.546c2.981,0,5.855,0.455,8.178,2.266c2.073,1.617,2.423,2.419,2.801,4.188L107.885,23.959z"/>
	<path id="path2225" fill="#7B0099" d="M140.683,33.79l-1.658-0.142l-0.018-3.591l2.099,0.262l1.881,0.087l-0.522,3.517
		L140.683,33.79 M142.819,27.446l-3.094-0.3c0.325-1.565,0.042-13.576,0.017-14.857l-0.159-2.523
		c0.862,0.17,0.731,0.081,4.369,0.463c2.213,0.232,2.502,0.332,3.231,0.36l-0.951,2.992
		C145.42,15.974,143.069,26.647,142.819,27.446z"/>
	<path id="path2227" fill="#7B0099" d="M132.783,22.363c0.329-5.248-4.727-7.16-10.178-6.786c-2.853,0.195-8.183,1.882-8.183,6.786
		c0,4.845,4.461,7.288,10.404,6.771c4.597-0.401,6.511-2.13,7.559-4.475C132.384,24.658,132.684,23.959,132.783,22.363
		 M136.907,21.588c0.408,5.465-5.899,10.005-13.804,10.005c-3.288,0-6.087-0.399-9.33-2.544c-2.667-1.765-3.942-3.294-4.274-6.304
		c-0.59-5.332,5.841-9.814,14.783-9.756c3.404,0,6.684,0.518,9.337,2.587c2.365,1.845,2.779,3.595,3.211,5.616L136.907,21.588z"/>
	<path id="path2229" fill="#7B0099" d="M146.276,32.077h0.32c0.278,0,0.547-0.014,0.547-0.343c0-0.283-0.246-0.316-0.457-0.316
		h-0.41V32.077 M145.965,31.163h0.772c0.485,0,0.716,0.193,0.716,0.585c0,0.372-0.235,0.528-0.542,0.56l0.589,0.905h-0.335
		l-0.556-0.882h-0.335v0.882h-0.311V31.163L145.965,31.163z M146.634,33.689c0.801,0,1.442-0.651,1.442-1.499
		s-0.641-1.499-1.442-1.499c-0.806,0-1.442,0.651-1.442,1.499S145.828,33.689,146.634,33.689z M146.634,30.437
		c0.952,0,1.754,0.754,1.754,1.754c0,0.999-0.801,1.754-1.754,1.754c-0.956,0-1.753-0.754-1.753-1.754
		C144.881,31.191,145.677,30.437,146.634,30.437z"/>
</g>
</svg>
